<svg width="437" height="437" viewBox="0 0 437 437" fill="none" xmlns="http://www.w3.org/2000/svg">
<rect width="437" height="437" fill="#0B14B5"/>
<path d="M102 218.25C102 187.419 114.248 157.85 136.049 136.049C157.85 114.248 187.419 102 218.25 102C250.749 102.122 281.942 114.803 305.308 137.392L334.5 166.583M334.5 166.583V102M334.5 166.583H269.917M334.5 218.25C334.5 249.081 322.252 278.65 300.451 300.451C278.65 322.252 249.081 334.5 218.25 334.5C185.751 334.378 154.558 321.697 131.192 299.108L102 269.917M102 269.917H166.583M102 269.917V334.5" stroke="white" stroke-width="26" stroke-linecap="square"/>
</svg>
